<?xml version="1.0" encoding="UTF-8"?>
<svg width="320" height="100" viewBox="0 0 320 100" xmlns="http://www.w3.org/2000/svg" role="img" aria-label="LiteMarkup logo">
  <defs>
    <linearGradient id="brand-gradient" x1="0%" y1="0%" x2="100%" y2="100%">
      <stop offset="0" stop-color="#21857a"/>
      <stop offset="1" stop-color="#c11f2e"/>
    </linearGradient>
  </defs>

  <rect width="320" height="100" fill="#ffffff"/>
  <rect x="23.239956" y="18.010967" width="64" height="64" rx="16" fill="url(#brand-gradient)"/>

  <path
    fill="#ffffff"
    d="M 36.513601,60.228154 H 49.130918 V 56.991578 H 40.155573 V 38.794831 h -3.641972 z m 15.795515,0 h 3.57377 V 49.410799 c 0,-1.625481 -0.08185,-4.588745 -0.136403,-7.019773 0.750219,2.761877 1.568639,5.624449 2.046051,7.019773 l 3.805655,10.817355 h 3.096358 l 3.751094,-10.817355 c 0.477413,-1.438479 1.336754,-4.387358 2.032411,-7.134851 -0.04092,2.546106 -0.122763,5.53814 -0.122763,7.134851 v 10.817355 h 3.628332 V 38.794831 h -5.497058 l -3.819297,11.061896 c -0.39557,1.280245 -1.023025,3.927044 -1.500437,6.041607 -0.463772,-2.143332 -1.104868,-4.775747 -1.514078,-6.041607 L 57.792534,38.794831 h -5.483418 z"
  />

  <path
    fill="#111827"
    d="m 109.75273,62.809536 h 16.25976 V 58.854458 H 114.44608 V 36.618129 h -4.69335 z m 19.34452,0 h 4.57032 V 43.157192 h -4.57032 z m 2.28516,-22.429688 c 1.45898,0 2.67187,-1.125 2.67187,-2.513672 0,-1.388672 -1.21289,-2.496093 -2.67187,-2.496093 -1.45898,0 -2.6543,1.107421 -2.6543,2.496093 0,1.388672 1.19532,2.513672 2.6543,2.513672 z m 15.42461,2.777344 h -3.79688 v -4.675781 h -4.57031 v 4.675781 h -2.79492 v 3.585937 h 2.79492 v 10.916016 c 0,3.480469 2.0918,5.414063 5.85352,5.414063 0.96679,0 2.05664,-0.123047 3.05859,-0.421875 l -0.7207,-3.533204 c -0.43946,0.105469 -1.24805,0.228516 -1.66993,0.228516 -1.38867,0 -1.95117,-0.650391 -1.95117,-2.074219 V 46.743129 h 3.79688 z m 11.15312,20.056641 c 4.37696,0 7.43555,-2.091797 8.38477,-5.273438 l -4.20117,-0.861328 c -0.61524,1.669922 -2.12696,2.548828 -4.13086,2.548828 -2.93555,0 -4.92188,-1.863281 -5.04493,-5.361328 h 13.67579 v -1.441406 c 0,-6.890625 -4.1836,-9.914063 -8.98243,-9.914063 -5.625,0 -9.24609,4.148438 -9.24609,10.195313 0,6.152343 3.62109,10.107422 9.54492,10.107422 z m -4.97461,-12.058594 c 0.21094,-2.619141 1.89844,-4.658203 4.69336,-4.658203 2.72461,0 4.25391,1.845703 4.51758,4.658203 z m 16.98907,11.654297 h 4.60546 v -13.21875 c 0,-1.986328 -0.10546,-5.607422 -0.17578,-8.578125 0.9668,3.375 2.02149,6.873047 2.63672,8.578125 l 4.9043,13.21875 h 3.99023 l 4.83399,-13.21875 c 0.61523,-1.757813 1.72265,-5.361328 2.61914,-8.71875 -0.0527,3.111328 -0.1582,6.767578 -0.1582,8.71875 v 13.21875 h 4.67578 V 36.618129 h -7.08399 l -4.92187,13.517579 c -0.50977,1.564453 -1.31836,4.798828 -1.9336,7.382812 -0.59765,-2.619141 -1.42382,-5.835937 -1.95117,-7.382812 L 177.041,36.618129 h -7.0664 z m 37.67851,0.404297 c 3.0586,0 4.92188,-1.423829 5.78321,-3.111329 h 0.17578 v 2.707032 h 4.37695 v -13.13086 c 0,-5.238281 -4.32422,-6.767578 -8.01563,-6.767578 -3.9375,0 -7.17187,1.669922 -8.33203,5.132813 l 4.23633,0.861328 c 0.47461,-1.300781 1.82813,-2.478516 4.11328,-2.478516 2.23242,0 3.42774,1.125 3.42774,3.041016 v 0.08789 c 0,1.353516 -1.44141,1.40625 -4.85157,1.775391 -3.79687,0.404297 -7.48828,1.529297 -7.48828,5.958984 0,3.867188 2.83008,5.923829 6.57422,5.923829 z m 1.17774,-3.392579 c -1.9336,0 -3.32227,-0.878906 -3.32227,-2.583984 0,-1.792969 1.54688,-2.548828 3.60352,-2.830078 1.17773,-0.158203 3.72656,-0.474609 4.34179,-0.966797 v 2.320313 c 0,2.179687 -1.81054,4.060546 -4.62304,4.060546 z m 13.20976,2.988282 h 4.57031 V 51.243129 c 0,-2.496093 1.88086,-4.253906 4.42969,-4.253906 0.80859,0 1.77539,0.123047 2.16211,0.228516 v -4.201172 c -0.43945,-0.07031 -1.16016,-0.123047 -1.66992,-0.123047 -2.25,0 -4.14844,1.283203 -4.85157,3.550781 h -0.21093 v -3.287109 h -4.42969 z m 14.05352,0 h 4.57031 v -6.609375 l 1.6875,-1.810547 6.06446,8.419922 h 5.48437 l -8.06836,-11.16211 7.61133,-8.490234 h -5.36133 l -7.08398,7.927734 h -0.33399 V 36.618129 h -4.57031 z m 26.42852,0.246093 c 2.84766,0 4.9043,-1.371093 6.08203,-4.183593 l 0.0352,3.9375 h 4.34179 V 43.157192 h -4.58789 v 11.513672 c 0,2.847656 -1.75781,4.5 -4.18359,4.5 -2.39063,0 -3.84961,-1.582031 -3.84961,-4.21875 V 43.157192 h -4.57031 v 12.498047 c 0,4.728515 2.68945,7.40039 6.73242,7.40039 z m 14.51054,7.101563 h 4.57032 V 59.698208 h 0.19336 c 0.70312,1.423828 2.23242,3.46289 5.60742,3.46289 4.6582,0 8.12109,-3.691406 8.12109,-10.142578 0,-6.539062 -3.56836,-10.107422 -8.10351,-10.107422 -3.49805,0 -4.93946,2.109375 -5.625,3.498047 h -0.29883 v -3.251953 h -4.46485 z m 9.14063,-10.757813 c -2.98828,0 -4.6582,-2.566406 -4.6582,-6.398437 0,-3.832031 1.63476,-6.328125 4.6582,-6.328125 3.09375,0 4.6582,2.671875 4.6582,6.328125 0,3.691406 -1.59961,6.398437 -4.6582,6.398437 z"
  />
</svg>
